<svg id="Layer_1" data-name="Layer 1" xmlns="http://www.w3.org/2000/svg" width="130" height="130" viewBox="0 0 130 130"><defs><style>.cls-1{fill:#6f837e;}</style></defs><path class="cls-1" d="M115.89,1.21H14.11A14.88,14.88,0,0,0,4.54,4.37a9.46,9.46,0,0,0-4,7.7,9.72,9.72,0,0,0,4,7.78,14.66,14.66,0,0,0,9.57,3.24H115.89a14.66,14.66,0,0,0,9.57-3.24,9.74,9.74,0,0,0,4-7.78,9.49,9.49,0,0,0-4-7.7A14.88,14.88,0,0,0,115.89,1.21Z"/><path class="cls-1" d="M115.89,54.06H14.11a14.93,14.93,0,0,0-9.57,3.15,9.49,9.49,0,0,0-4,7.7,9.72,9.72,0,0,0,4,7.79,14.66,14.66,0,0,0,9.57,3.24H115.89a14.66,14.66,0,0,0,9.57-3.24,9.75,9.75,0,0,0,4-7.79,9.52,9.52,0,0,0-4-7.7A14.93,14.93,0,0,0,115.89,54.06Z"/><path class="cls-1" d="M115.89,106.91H14.11a14.93,14.93,0,0,0-9.57,3.15,9.49,9.49,0,0,0-4,7.7,9.73,9.73,0,0,0,4,7.79,14.66,14.66,0,0,0,9.57,3.24H115.89a14.66,14.66,0,0,0,9.57-3.24,9.76,9.76,0,0,0,4-7.79,9.52,9.52,0,0,0-4-7.7A14.93,14.93,0,0,0,115.89,106.91Z"/></svg>