<svg id="Layer_1" data-name="Layer 1" xmlns="http://www.w3.org/2000/svg" width="45" height="45" viewBox="0 0 45 45"><defs><style>.cls-1{fill:#4f5c59;}</style></defs><g id="basket_filled" data-name="basket filled"><path id="Path_23" data-name="Path 23" class="cls-1" d="M15.76,44.63a4.38,4.38,0,1,1,4.38-4.38,4.38,4.38,0,0,1-4.38,4.38"/><path id="Path_24" data-name="Path 24" class="cls-1" d="M36.29,44.63a4.38,4.38,0,1,1,4.38-4.38,4.38,4.38,0,0,1-4.38,4.38"/><path id="Path_25" data-name="Path 25" class="cls-1" d="M16.68,33a6,6,0,0,1-5.8-4.79L6.16,4.75H.39V.37H9.75l1.89,9.41h33L41.09,28.17a6.08,6.08,0,0,1-6,4.81H16.68M12.51,14.15l2.65,13.18a1.66,1.66,0,0,0,1.59,1.27H35.16a1.69,1.69,0,0,0,1.63-1.27l2.52-13.18Z"/></g></svg>