<svg id="Layer_1" data-name="Layer 1" xmlns="http://www.w3.org/2000/svg" width="45" height="45" viewBox="0 0 45 45"><defs><style>.cls-1{fill:#4f5c59;}</style></defs><path class="cls-1" d="M11.59,34.44c2.29,2.22,4.89,4.57,7.72,7.15L22.5,44.5h0l3.19-2.89C37,31.28,44.51,24.48,44.51,16.14v-.23A12,12,0,0,0,32.41,4,13.22,13.22,0,0,0,22.5,8.62a12.16,12.16,0,0,0-1-1A13.16,13.16,0,0,0,12.59,4h-.25A12,12,0,0,0,.49,16.14a13.3,13.3,0,0,0,.09,1.55C1.21,23.31,5.27,28.34,11.59,34.44ZM4.35,7.89a11.5,11.5,0,0,1,8.24-3.38A12.65,12.65,0,0,1,22.13,9l.37.43L22.87,9a12.65,12.65,0,0,1,9.54-4.44A11.49,11.49,0,0,1,44,16.14,13.89,13.89,0,0,1,42.72,22,26.07,26.07,0,0,1,39,27.78c-3.25,4-8,8.34-13.55,13.37L22.5,43.83l-2.86-2.62,0,0C8.39,31,1,24.25,1,16.14A11.57,11.57,0,0,1,4.35,7.89Z"/><path class="cls-1" d="M22.69,45h-.38L19,42c-2.79-2.54-5.43-4.94-7.73-7.16h0C5,28.79.75,23.59.09,17.75A14.35,14.35,0,0,1,0,16.14,12.54,12.54,0,0,1,12.34,3.5h.27a13.51,13.51,0,0,1,9.23,3.71q.35.32.66.66A13.67,13.67,0,0,1,32.4,3.5,12.21,12.21,0,0,1,41.21,7,12.74,12.74,0,0,1,45,15.9v.24c0,8.55-7.52,15.4-18.89,25.76ZM4.69,8.24a11.17,11.17,0,0,0-3.22,7.9c0,7.89,7.35,14.57,18.46,24.67l2.57,2.35,2.63-2.38c5.5-5,10.24-9.33,13.5-13.32a25.9,25.9,0,0,0,3.65-5.71,13.55,13.55,0,0,0,1.25-5.61,11.12,11.12,0,0,0-3.22-7.9A11,11,0,0,0,32.41,5a12.17,12.17,0,0,0-9.17,4.27l-.75.87-.73-.88A12.21,12.21,0,0,0,12.59,5h-.1A11,11,0,0,0,4.69,8.24Z"/></svg>