<svg id="Layer_1" data-name="Layer 1" xmlns="http://www.w3.org/2000/svg" width="160" height="180" viewBox="0 0 160 180"><defs><style>.cls-1{fill:#a0c3bb;}.cls-2{fill:#ebc5d8;}.cls-3{fill:#f2f2f4;}</style></defs><circle class="cls-1" cx="75.24" cy="76.7" r="71.96"/><path class="cls-2" d="M153.38,121.86a35.92,35.92,0,0,1,2.78,9,40.14,40.14,0,0,1,.48,9.28,37.93,37.93,0,0,1-1.74,9.15,36,36,0,0,1-4.05,8.55,37.87,37.87,0,0,1-33.08,17.4,39.21,39.21,0,0,1-9.43-1.61,37.53,37.53,0,0,1-8.67-3.86,40.48,40.48,0,0,1-7.5-5.88,33.46,33.46,0,0,1-5.77-7.64c-.32-.54-.61-1.08-.88-1.6s-.52-1.07-.77-1.64l-.6-1.4L65.21,107.54A7.22,7.22,0,0,1,69.07,98a7.08,7.08,0,0,1,5.6-.12,7,7,0,0,1,4,3.89l7.62,17.74,0-.11a40.28,40.28,0,0,1,9.53-11.16,36.51,36.51,0,0,1,13-6.82,38,38,0,0,1,14.61-1.25,36.38,36.38,0,0,1,14,4.48,38.24,38.24,0,0,1,9.29,7.41A39.91,39.91,0,0,1,153.38,121.86Zm-11.61,20.4a22,22,0,0,0-2.06-15.16,21.64,21.64,0,0,0-5.19-6.75,25,25,0,0,0-7.25-4.46,21.45,21.45,0,0,0-3.92-1c-1.32-.2-2.67-.33-4.06-.42A22.4,22.4,0,0,0,110,116.3,23.41,23.41,0,0,0,96,139a22.75,22.75,0,0,0,4,11.53,23.77,23.77,0,0,0,9.23,8,20.15,20.15,0,0,0,9.1,2.21,21.49,21.49,0,0,0,2.41.11l2.46,0c-.67,0-1.34,0-2,0s-1.37,0-2.07-.07a21.65,21.65,0,0,0,14.37-5,22.71,22.71,0,0,0,8.31-13.5Z"/><path class="cls-3" d="M85.06,33.56a6.78,6.78,0,0,1-1.24-9.23c2.42-3.45,6.46-3.9,10-1.41,2.88,2,4.06,5.27,2.79,8.34C94.73,35.81,88.74,36.84,85.06,33.56Zm39.3,30.62A181.59,181.59,0,0,0,109.45,47a4,4,0,0,1-.64-4.75l1.67-3a3.27,3.27,0,0,1,5.47-.39,155.62,155.62,0,0,1,12.88,19.81,3.67,3.67,0,0,1-.08,3.48l-1,1.82A2,2,0,0,1,124.36,64.18Z"/></svg>