<svg id="Layer_1" data-name="Layer 1" xmlns="http://www.w3.org/2000/svg" xmlns:xlink="http://www.w3.org/1999/xlink" width="45" height="45" viewBox="0 0 45 45"><defs><style>.cls-1{fill:none;}.cls-2{clip-path:url(#clip-path);}.cls-3{fill:#4f5c59;}</style><clipPath id="clip-path"><rect class="cls-1" y="4.13" width="45" height="40.5"/></clipPath></defs><g id="heart_filled" data-name="heart filled"><g class="cls-2"><g id="Group_7" data-name="Group 7"><path id="Path_34" data-name="Path 34" class="cls-3" d="M22.5,44.63l-3.26-2.91C7.65,31.41,0,24.62,0,16.27A12.15,12.15,0,0,1,12.14,4.13h.23A13.59,13.59,0,0,1,22.5,8.75,13.57,13.57,0,0,1,32.62,4.14,12.14,12.14,0,0,1,45,16v.23c0,8.35-7.65,15.14-19.24,25.47Z"/><path id="Path_35" data-name="Path 35" class="cls-3" d="M22.5,44l3-2.68c5.65-5,10.52-9.38,13.84-13.37a25.9,25.9,0,0,0,3.81-5.81,14,14,0,0,0,1.33-5.83A11.56,11.56,0,0,0,41.06,8a12,12,0,0,0-8.44-3.37,13,13,0,0,0-9.74,4.44l-.39.43-.37-.43a13.06,13.06,0,0,0-9.75-4.44A11.92,11.92,0,0,0,3.94,8,11.52,11.52,0,0,0,.5,16.27c0,8.11,7.58,14.85,19,25.05l0,0Zm0,.67-3.26-2.91C7.65,31.41,0,24.62,0,16.27A12.15,12.15,0,0,1,12.14,4.13h.23A13.59,13.59,0,0,1,22.5,8.75,13.57,13.57,0,0,1,32.62,4.14,12.13,12.13,0,0,1,45,16a1.85,1.85,0,0,1,0,.23c0,8.35-7.65,15.14-19.24,25.47Z"/></g></g></g></svg>