<svg id="Layer_1" data-name="Layer 1" xmlns="http://www.w3.org/2000/svg" width="130" height="130" viewBox="0 0 130 130"><defs><style>.cls-1{fill:#6f837e;}</style></defs><path class="cls-1" d="M123.37,13.68v3.16A69,69,0,0,1,116.2,44,62.19,62.19,0,0,1,99.59,64.7a62.94,62.94,0,0,1,16.7,20.94,67.78,67.78,0,0,1,7.08,27.47v3.37a12.45,12.45,0,0,1-3.27,8.73,10.4,10.4,0,0,1-8,3.58,10.7,10.7,0,0,1-8.08-3.57,12.23,12.23,0,0,1-3.35-8.72v-2a41.82,41.82,0,0,0-3.18-14.36,40.71,40.71,0,0,0-7.45-11.69,36.84,36.84,0,0,0-10.8-8.12A31.56,31.56,0,0,0,66,77.08a1.83,1.83,0,0,1-.91.2,2.25,2.25,0,0,1-1.09-.2,31.56,31.56,0,0,0-13.25,3.27A36.71,36.71,0,0,0,40,88.47a42.29,42.29,0,0,0-7.54,11.69,37.6,37.6,0,0,0-3.09,14.36v2A12.27,12.27,0,0,1,26,125.22a10.71,10.71,0,0,1-8.08,3.57,10.4,10.4,0,0,1-8-3.58,12.45,12.45,0,0,1-3.27-8.73v-3.37a67.46,67.46,0,0,1,7.08-27.47A62.94,62.94,0,0,1,30.41,64.7,62.19,62.19,0,0,1,13.8,44a69,69,0,0,1-7.17-27.2V13.48A12.42,12.42,0,0,1,9.9,4.77a10.44,10.44,0,0,1,8-3.56A10.59,10.59,0,0,1,26,4.87a12.53,12.53,0,0,1,3.35,8.77V15a38.05,38.05,0,0,0,3.09,14.4A41.4,41.4,0,0,0,40,41.17a35,35,0,0,0,10.8,8A32.23,32.23,0,0,0,64,52.32h2a32.23,32.23,0,0,0,13.25-3.16,35.1,35.1,0,0,0,10.8-8A39.9,39.9,0,0,0,97.5,29.43,42.36,42.36,0,0,0,100.68,15V13.64A12.49,12.49,0,0,1,104,4.87a10.58,10.58,0,0,1,8.08-3.66,10.44,10.44,0,0,1,8,3.56,12.42,12.42,0,0,1,3.27,8.71Z"/></svg>