<svg id="Layer_1" data-name="Layer 1" xmlns="http://www.w3.org/2000/svg" width="450" height="130" viewBox="0 0 450 130"><defs><style>.cls-1{fill:#f2f2f4;stroke:#f2f2f4;stroke-miterlimit:10;stroke-width:53px;}.cls-2{fill:#a0c3bb;}.cls-3{fill:#ebc5d8;}</style></defs><path class="cls-1" d="M92.15,71.52a26,26,0,0,1-.84,7.32,30.13,30.13,0,0,1-2.71,6.82,29.53,29.53,0,0,1-4.38,6,29.9,29.9,0,0,1-6,4.9,32.7,32.7,0,0,1-15.36,5,33.57,33.57,0,0,1-16-2.69,33,33,0,0,1-6.75-4.08,30.39,30.39,0,0,1-9.25-12A24.52,24.52,0,0,1,29,75.55c-.07-.49-.12-1-.15-1.42s-.05-.93-.05-1.42V34a5.27,5.27,0,0,1,1.78-4,6.6,6.6,0,0,1,8.73,0,5.27,5.27,0,0,1,1.78,4V49a35,35,0,0,1,11.06-5.08,33.44,33.44,0,0,1,24,2.75,29.92,29.92,0,0,1,9.34,7.55,29.4,29.4,0,0,1,6.59,17.29ZM76.42,82.59a17.06,17.06,0,0,0,1.67-18A19.65,19.65,0,0,0,74,59.17a17.92,17.92,0,0,0-2.7-1.92q-1.42-.82-3-1.56a19.86,19.86,0,0,0-7.75-1.55,21,21,0,0,0-7.76,1.46,19.94,19.94,0,0,0-6.49,4.3,18,18,0,0,0-4.13,6.22,16.57,16.57,0,0,0-.74,9.52,18.16,18.16,0,0,0,4.47,8.6,17,17,0,0,0,6.3,4.39,18.69,18.69,0,0,0,1.82.82c.62.25,1.26.49,1.91.73-.52-.18-1-.38-1.57-.59s-1-.44-1.58-.69a19.49,19.49,0,0,0,12.77.83,19.94,19.94,0,0,0,6.14-2.66A18.47,18.47,0,0,0,76.42,82.59Z"/><path class="cls-1" d="M157.84,42.7a6,6,0,0,1,4.32,1.69,5.44,5.44,0,0,1,1.77,4.07V72.25a26.53,26.53,0,0,1-2.5,11.39A30.12,30.12,0,0,1,154.64,93,33,33,0,0,1,110,93a29.8,29.8,0,0,1-6.79-9.33,26.54,26.54,0,0,1-2.51-11.39V48.46a5.38,5.38,0,0,1,1.82-4.07,6.18,6.18,0,0,1,4.38-1.69,6,6,0,0,1,4.32,1.69A5.43,5.43,0,0,1,113,48.45V72.19a16.15,16.15,0,0,0,1.52,7,18.76,18.76,0,0,0,4.13,5.71,19.27,19.27,0,0,0,6.15,3.88,20.26,20.26,0,0,0,7.57,1.41A20.13,20.13,0,0,0,146,84.89a18.59,18.59,0,0,0,4.18-5.71,16.3,16.3,0,0,0,1.52-7h-.1V48.45a5.36,5.36,0,0,1,1.82-4.06A6.18,6.18,0,0,1,157.84,42.7Z"/><path class="cls-1" d="M236,71.52a26,26,0,0,1-.83,7.32,30.61,30.61,0,0,1-2.71,6.82,29.53,29.53,0,0,1-4.38,6,29.9,29.9,0,0,1-6,4.9,32.73,32.73,0,0,1-15.37,5,33.5,33.5,0,0,1-15.95-2.69,33,33,0,0,1-6.75-4.08,30.33,30.33,0,0,1-5.42-5.44,31,31,0,0,1-3.84-6.54,24.52,24.52,0,0,1-1.92-7.27c-.06-.49-.11-1-.15-1.42s0-.93,0-1.42V34a5.27,5.27,0,0,1,1.78-4,6.59,6.59,0,0,1,8.72,0A5.28,5.28,0,0,1,185,34V49A34.94,34.94,0,0,1,196,43.93a33.42,33.42,0,0,1,24,2.75,30,30,0,0,1,9.35,7.55A29.3,29.3,0,0,1,236,71.52ZM220.29,82.59a17.12,17.12,0,0,0,1.67-18,19.69,19.69,0,0,0-4.13-5.44,17.92,17.92,0,0,0-2.7-1.92c-.95-.55-1.94-1.07-3-1.56a19.94,19.94,0,0,0-7.76-1.55,21,21,0,0,0-7.76,1.46,20,20,0,0,0-6.49,4.3A18.25,18.25,0,0,0,186,66.12a16.56,16.56,0,0,0-.73,9.52,18,18,0,0,0,4.47,8.6A17,17,0,0,0,196,88.63a19.83,19.83,0,0,0,1.82.82c.62.25,1.26.49,1.92.73-.53-.18-1.05-.38-1.58-.59s-1.05-.44-1.57-.69a19.48,19.48,0,0,0,12.77.83,19.78,19.78,0,0,0,6.13-2.66A18.35,18.35,0,0,0,220.29,82.59Z"/><path class="cls-1" d="M308.29,71.52a25.65,25.65,0,0,1-.84,7.32A29.81,29.81,0,0,1,294.4,96.59a32.7,32.7,0,0,1-15.36,5,33.57,33.57,0,0,1-16-2.69,32.63,32.63,0,0,1-6.74-4.08,30,30,0,0,1-5.42-5.44,30.59,30.59,0,0,1-3.84-6.54,24.52,24.52,0,0,1-1.92-7.27c-.07-.49-.12-1-.15-1.42s0-.93,0-1.42V34a5.28,5.28,0,0,1,1.79-4,6.59,6.59,0,0,1,8.72,0,5.27,5.27,0,0,1,1.78,4V49a35.1,35.1,0,0,1,11.07-5.08,33.42,33.42,0,0,1,24,2.75,29.81,29.81,0,0,1,9.34,7.55,29.4,29.4,0,0,1,6.59,17.29ZM292.56,82.59A16.28,16.28,0,0,0,296,71.06a16,16,0,0,0-1.77-6.45,19.65,19.65,0,0,0-4.12-5.44,17.92,17.92,0,0,0-2.7-1.92c-1-.55-2-1.07-3-1.56a19.94,19.94,0,0,0-7.76-1.55,21,21,0,0,0-7.76,1.46,19.94,19.94,0,0,0-6.49,4.3,18.1,18.1,0,0,0-4.13,6.22,16.57,16.57,0,0,0-.74,9.52,18.09,18.09,0,0,0,4.48,8.6,16.94,16.94,0,0,0,6.29,4.39,18.69,18.69,0,0,0,1.82.82c.62.25,1.26.49,1.92.73-.53-.18-1.05-.38-1.58-.59s-1.05-.44-1.58-.69a19.49,19.49,0,0,0,12.77.83,19.83,19.83,0,0,0,6.14-2.66A18.47,18.47,0,0,0,292.56,82.59Z"/><path class="cls-1" d="M353.13,96a5.12,5.12,0,0,1-1.72,3.89,6.71,6.71,0,0,1-4.18,1.78h-.88a32.7,32.7,0,0,1-12-2.56,32.34,32.34,0,0,1-9.77-6.36A30.18,30.18,0,0,1,318,83.46a26.76,26.76,0,0,1-2.42-11.3V48.37a5.25,5.25,0,0,1,1.78-4,6.2,6.2,0,0,1,4.36-1.65,6.36,6.36,0,0,1,4.41,1.65,5.17,5.17,0,0,1,1.84,4l-.1,23.79A16.22,16.22,0,0,0,329.33,79a18.71,18.71,0,0,0,4,5.63,20,20,0,0,0,5.9,3.93,18.59,18.59,0,0,0,7.22,1.6h.5a6.19,6.19,0,0,1,4.37,1.7A5.37,5.37,0,0,1,353.13,96Z"/><path class="cls-1" d="M415.08,42.79a6.11,6.11,0,0,1,4.33,1.65,5.29,5.29,0,0,1,1.77,4v5.86a31.85,31.85,0,0,1-.69,5.67,24,24,0,0,1-1.87,5.4,31,31,0,0,1-6.68,9.33,41.11,41.11,0,0,1-4.72,3.62A28.75,28.75,0,0,1,401.91,81c-1.05.37-2.09.71-3.1,1a24.12,24.12,0,0,1-3.2.73V96a5.15,5.15,0,0,1-1.77,4,6.19,6.19,0,0,1-4.32,1.6,6.08,6.08,0,0,1-4.23-1.6,5.15,5.15,0,0,1-1.77-4V82.77a24.12,24.12,0,0,1-3.2-.73c-1-.3-2.05-.64-3.1-1a28.75,28.75,0,0,1-5.31-2.69,40.26,40.26,0,0,1-4.72-3.62,31.1,31.1,0,0,1-6.78-9.33A30.07,30.07,0,0,1,358,54.32V48.46a5.29,5.29,0,0,1,1.77-4,6.11,6.11,0,0,1,4.33-1.65,5.92,5.92,0,0,1,4.27,1.65,5.35,5.35,0,0,1,1.72,4V54a16.56,16.56,0,0,0,1.53,7,18.28,18.28,0,0,0,4.18,5.76,19.64,19.64,0,0,0,6.19,3.89,20.12,20.12,0,0,0,7.58,1.42,20.51,20.51,0,0,0,7.62-1.42,19.54,19.54,0,0,0,6.24-3.89A18.44,18.44,0,0,0,407.56,61a16.55,16.55,0,0,0,1.52-7V48.46a5.36,5.36,0,0,1,1.73-4A5.92,5.92,0,0,1,415.08,42.79Z"/><path class="cls-2" d="M92.35,76.33a30.68,30.68,0,0,1-.85,8,35.05,35.05,0,0,1-2.76,7.47,32.84,32.84,0,0,1-4.47,6.61,31.1,31.1,0,0,1-6.07,5.36,32.51,32.51,0,0,1-31.92,2.51,33.18,33.18,0,0,1-6.87-4.46,32.22,32.22,0,0,1-5.53-6A34.65,34.65,0,0,1,30,88.71a28.63,28.63,0,0,1-2-8c-.06-.53-.11-1-.15-1.55s-.05-1-.05-1.55V35.25a6,6,0,0,1,1.82-4.41,6.36,6.36,0,0,1,8.89,0,6,6,0,0,1,1.82,4.41V51.68a34.61,34.61,0,0,1,11.27-5.56,31.2,31.2,0,0,1,12.58-.95,32.34,32.34,0,0,1,11.93,4,31.07,31.07,0,0,1,9.52,8.26,32.9,32.9,0,0,1,4.81,9A34.11,34.11,0,0,1,92.35,76.33Zm-16,12.13a18.76,18.76,0,0,0,3.5-12.63A18.47,18.47,0,0,0,78,68.77a21.41,21.41,0,0,0-4.2-6,18.21,18.21,0,0,0-2.75-2.1c-1-.6-2-1.17-3-1.7a19.09,19.09,0,0,0-7.91-1.71A20.06,20.06,0,0,0,41.38,70.42a19.46,19.46,0,0,0-.75,10.42,20.35,20.35,0,0,0,4.56,9.42,17.29,17.29,0,0,0,6.42,4.81,15.79,15.79,0,0,0,1.85.9l1.95.81c-.53-.2-1.07-.42-1.6-.66s-1.07-.48-1.61-.75a18.58,18.58,0,0,0,13,.9,19.39,19.39,0,0,0,11.11-7.81Z"/><path class="cls-2" d="M159.29,44.77a5.89,5.89,0,0,1,4.41,1.85,6.18,6.18,0,0,1,1.8,4.46V77.13A31,31,0,0,1,163,89.61a32.64,32.64,0,0,1-17.14,17.14,32,32,0,0,1-25,0,32.64,32.64,0,0,1-17.14-17.14,31,31,0,0,1-2.55-12.48v-26a6.32,6.32,0,0,1,6.31-6.31,5.89,5.89,0,0,1,4.41,1.85,6.14,6.14,0,0,1,1.8,4.45v26a18.76,18.76,0,0,0,1.56,7.65,20.45,20.45,0,0,0,4.2,6.25,19.56,19.56,0,0,0,6.27,4.26,19.34,19.34,0,0,0,7.71,1.55A19.12,19.12,0,0,0,141,95.23a20.16,20.16,0,0,0,10.57-10.51,18.76,18.76,0,0,0,1.56-7.65H153v-26a6.32,6.32,0,0,1,6.31-6.3Z"/><path class="cls-2" d="M239,76.33a30.68,30.68,0,0,1-.86,8,34,34,0,0,1-2.76,7.47,32.38,32.38,0,0,1-4.46,6.61,31.4,31.4,0,0,1-6.07,5.36,32.51,32.51,0,0,1-31.92,2.51,33.51,33.51,0,0,1-6.88-4.46,31.83,31.83,0,0,1-5.52-6,34.18,34.18,0,0,1-3.91-7.16,28.63,28.63,0,0,1-2-8c-.07-.53-.12-1-.15-1.55s-.05-1-.05-1.55V35.25A6.2,6.2,0,0,1,180.68,29a6.06,6.06,0,0,1,4.45,1.81A6,6,0,0,1,187,35.25V51.68a34.41,34.41,0,0,1,11.27-5.56,31.2,31.2,0,0,1,12.58-.95,32.23,32.23,0,0,1,11.92,4,31,31,0,0,1,9.52,8.26,32.63,32.63,0,0,1,4.81,9A34.12,34.12,0,0,1,239,76.33Zm-16,12.13a18.81,18.81,0,0,0,3.5-12.63,18.47,18.47,0,0,0-1.8-7.06,21.62,21.62,0,0,0-4.2-6,18.72,18.72,0,0,0-2.75-2.1c-1-.6-2-1.17-3.05-1.7a19.13,19.13,0,0,0-7.91-1.71A20.06,20.06,0,0,0,188,70.42a19.46,19.46,0,0,0-.75,10.42,20.35,20.35,0,0,0,4.56,9.42,17.25,17.25,0,0,0,6.41,4.81,15.93,15.93,0,0,0,1.86.9l2,.81c-.53-.2-1.07-.42-1.61-.66s-1.06-.48-1.6-.75a18.58,18.58,0,0,0,13,.9,19.29,19.29,0,0,0,6.25-2.9A19.55,19.55,0,0,0,222.93,88.46Z"/><path class="cls-2" d="M312.61,76.33a30.68,30.68,0,0,1-.85,8A35.05,35.05,0,0,1,309,91.82a32.84,32.84,0,0,1-4.47,6.61,31.1,31.1,0,0,1-6.07,5.36,32.51,32.51,0,0,1-31.92,2.51,33.18,33.18,0,0,1-6.87-4.46,32.22,32.22,0,0,1-5.53-6,34.65,34.65,0,0,1-3.91-7.16,28.63,28.63,0,0,1-2-8c-.06-.53-.11-1-.15-1.55s-.05-1-.05-1.55V35.25a6,6,0,0,1,1.82-4.41,6.36,6.36,0,0,1,8.89,0,6,6,0,0,1,1.82,4.41V51.68a34.61,34.61,0,0,1,11.27-5.56,31.2,31.2,0,0,1,12.58-.95,32.34,32.34,0,0,1,11.93,4,31.07,31.07,0,0,1,9.52,8.26,32.9,32.9,0,0,1,4.81,9A34.11,34.11,0,0,1,312.61,76.33Zm-16,12.13a18.76,18.76,0,0,0,3.5-12.63,18.47,18.47,0,0,0-1.8-7.06,21.41,21.41,0,0,0-4.2-6,18.21,18.21,0,0,0-2.75-2.1c-1-.6-2-1.17-3.05-1.7a19.08,19.08,0,0,0-7.9-1.71,20.06,20.06,0,0,0-18.74,13.13,19.46,19.46,0,0,0-.75,10.42,20.35,20.35,0,0,0,4.56,9.42,17.29,17.29,0,0,0,6.42,4.81,15.79,15.79,0,0,0,1.85.9l1.95.81c-.53-.2-1.07-.42-1.6-.66s-1.07-.48-1.61-.75a18.58,18.58,0,0,0,13,.9,19.39,19.39,0,0,0,11.11-7.81Z"/><path class="cls-2" d="M358.3,103.09a5.8,5.8,0,0,1-1.75,4.26,6.56,6.56,0,0,1-4.26,2h-.9a31.58,31.58,0,0,1-12.23-2.8,32.76,32.76,0,0,1-10-7,33.16,33.16,0,0,1-6.71-10.12A31,31,0,0,1,320,77V51a6,6,0,0,1,1.82-4.41,6.09,6.09,0,0,1,4.45-1.8,6.24,6.24,0,0,1,4.49,1.8A5.87,5.87,0,0,1,332.65,51L332.55,77a18.91,18.91,0,0,0,1.5,7.52A20.3,20.3,0,0,0,344.12,95a18.06,18.06,0,0,0,7.37,1.76h.5a6.32,6.32,0,0,1,6.31,6.31Z"/><path class="cls-2" d="M421.44,44.87a6.15,6.15,0,0,1,6.21,6.21v6.41a38.19,38.19,0,0,1-.7,6.22A27.7,27.7,0,0,1,425,69.62a34.09,34.09,0,0,1-6.81,10.22,41.23,41.23,0,0,1-4.81,4,28,28,0,0,1-5.41,3c-1.07.41-2.12.77-3.16,1.11a24.89,24.89,0,0,1-3.25.8v14.53a5.85,5.85,0,0,1-1.81,4.36,6.07,6.07,0,0,1-4.41,1.75,6,6,0,0,1-4.31-1.75,5.84,5.84,0,0,1-1.8-4.36V88.66a25,25,0,0,1-3.26-.8c-1-.34-2.09-.7-3.15-1.11a28,28,0,0,1-5.42-3,41.23,41.23,0,0,1-4.81-4,34.1,34.1,0,0,1-6.91-10.22,35.15,35.15,0,0,1-2.51-12.13V51.08a6.16,6.16,0,0,1,6.22-6.21,5.85,5.85,0,0,1,4.36,1.8,6.07,6.07,0,0,1,1.75,4.41v6a19.43,19.43,0,0,0,1.55,7.72,20.19,20.19,0,0,0,4.26,6.31,19.9,19.9,0,0,0,6.32,4.26,19.17,19.17,0,0,0,7.71,1.55,19.93,19.93,0,0,0,14.13-5.81,20,20,0,0,0,4.26-6.31,19.26,19.26,0,0,0,1.55-7.72v-6a6.08,6.08,0,0,1,1.76-4.41A5.84,5.84,0,0,1,421.44,44.87Z"/><path class="cls-3" d="M83.52,68.6a30.26,30.26,0,0,1-.85,8,35,35,0,0,1-2.76,7.46,31.82,31.82,0,0,1-4.47,6.62,30.82,30.82,0,0,1-6.07,5.36,32.51,32.51,0,0,1-31.92,2.51,33.72,33.72,0,0,1-6.87-4.46,31.83,31.83,0,0,1-5.52-6A34.68,34.68,0,0,1,21.14,81a28.61,28.61,0,0,1-1.95-8c-.07-.53-.12-1.05-.15-1.55s-.05-1-.05-1.56V27.52a5.94,5.94,0,0,1,1.82-4.41,6,6,0,0,1,4.44-1.81,6,6,0,0,1,4.44,1.81,5.94,5.94,0,0,1,1.82,4.41V44a34.56,34.56,0,0,1,11.28-5.56,31.17,31.17,0,0,1,12.57-1,32.28,32.28,0,0,1,11.93,4,31.07,31.07,0,0,1,9.52,8.26,32.9,32.9,0,0,1,4.81,9A34,34,0,0,1,83.52,68.6Zm-16,12.13A19.86,19.86,0,0,0,69.2,61a21.62,21.62,0,0,0-4.2-6A18.29,18.29,0,0,0,62.24,53c-1-.6-2-1.17-3.05-1.7a19,19,0,0,0-7.9-1.71,19.49,19.49,0,0,0-14.52,6.32,19.92,19.92,0,0,0-4.21,6.81,19.46,19.46,0,0,0-.75,10.42,20.35,20.35,0,0,0,4.56,9.42,17.25,17.25,0,0,0,6.41,4.81,16.6,16.6,0,0,0,1.85.9l2,.81c-.54-.21-1.07-.42-1.61-.66s-1.07-.48-1.6-.75a18.58,18.58,0,0,0,13,.9,19.41,19.41,0,0,0,11.1-7.81Z"/><path class="cls-3" d="M150.46,37a5.89,5.89,0,0,1,4.41,1.85,6.18,6.18,0,0,1,1.81,4.46V69.4a31,31,0,0,1-2.56,12.48A32.55,32.55,0,0,1,137,99a30.88,30.88,0,0,1-12.47,2.55A31.19,31.19,0,0,1,111.93,99,32.58,32.58,0,0,1,94.8,81.88,30.8,30.8,0,0,1,92.24,69.4V43.35A6.32,6.32,0,0,1,98.55,37,5.89,5.89,0,0,1,103,38.89a6.11,6.11,0,0,1,1.81,4.45v26A18.75,18.75,0,0,0,106.32,77a20.48,20.48,0,0,0,4.21,6.25,19.63,19.63,0,0,0,6.26,4.26,19.43,19.43,0,0,0,7.72,1.55,19.11,19.11,0,0,0,7.61-1.55A20.13,20.13,0,0,0,142.7,77a18.92,18.92,0,0,0,1.55-7.65h-.1v-26a6.32,6.32,0,0,1,6.31-6.3Z"/><path class="cls-3" d="M230.13,68.6a30.68,30.68,0,0,1-.85,8,35,35,0,0,1-2.76,7.46,32.62,32.62,0,0,1-4.47,6.62A31.1,31.1,0,0,1,216,96.06a32.51,32.51,0,0,1-31.92,2.51,33.18,33.18,0,0,1-6.87-4.46,31.83,31.83,0,0,1-5.52-6A34.22,34.22,0,0,1,167.75,81a28.27,28.27,0,0,1-1.95-8c-.07-.53-.12-1.05-.16-1.55s0-1,0-1.56V27.52a6,6,0,0,1,1.82-4.41,6.36,6.36,0,0,1,8.89,0,6,6,0,0,1,1.82,4.41V44a34.61,34.61,0,0,1,11.27-5.56,31.2,31.2,0,0,1,12.58-1,32.34,32.34,0,0,1,11.93,4,31.07,31.07,0,0,1,9.52,8.26,32.9,32.9,0,0,1,4.81,9A34,34,0,0,1,230.13,68.6Zm-16,12.13a18.76,18.76,0,0,0,3.5-12.63A18.47,18.47,0,0,0,215.8,61a21.2,21.2,0,0,0-4.2-6,18.21,18.21,0,0,0-2.75-2.1c-1-.6-2-1.17-3-1.7a19.08,19.08,0,0,0-7.9-1.71,19.53,19.53,0,0,0-14.53,6.32,19.9,19.9,0,0,0-4.2,6.81,19.36,19.36,0,0,0-.76,10.42A20.45,20.45,0,0,0,183,82.53a17.29,17.29,0,0,0,6.42,4.81,16.6,16.6,0,0,0,1.85.9l1.95.81c-.53-.21-1.07-.42-1.6-.66s-1.07-.48-1.61-.75a18.58,18.58,0,0,0,13,.9,19.39,19.39,0,0,0,11.11-7.81Z"/><path class="cls-3" d="M303.78,68.6a30.26,30.26,0,0,1-.85,8,35,35,0,0,1-2.76,7.46,31.82,31.82,0,0,1-4.47,6.62,30.82,30.82,0,0,1-6.07,5.36,32.49,32.49,0,0,1-31.91,2.51,33.51,33.51,0,0,1-6.88-4.46,31.83,31.83,0,0,1-5.52-6A34.68,34.68,0,0,1,241.4,81a28.61,28.61,0,0,1-2-8c-.07-.53-.12-1.05-.15-1.55s-.05-1-.05-1.56V27.52a5.94,5.94,0,0,1,1.82-4.41,6.35,6.35,0,0,1,8.88,0,5.94,5.94,0,0,1,1.82,4.41V44a34.56,34.56,0,0,1,11.28-5.56,31.17,31.17,0,0,1,12.57-1,32.28,32.28,0,0,1,11.93,4,31.07,31.07,0,0,1,9.52,8.26,32.9,32.9,0,0,1,4.81,9A33.73,33.73,0,0,1,303.78,68.6Zm-16,12.13A19.86,19.86,0,0,0,289.46,61a21.62,21.62,0,0,0-4.2-6A18.29,18.29,0,0,0,282.5,53c-1-.6-2-1.17-3.05-1.7a19,19,0,0,0-7.9-1.71A19.49,19.49,0,0,0,257,55.88a19.92,19.92,0,0,0-4.21,6.81,19.46,19.46,0,0,0-.75,10.42,20.35,20.35,0,0,0,4.56,9.42A17.25,17.25,0,0,0,263,87.34a16.6,16.6,0,0,0,1.85.9l2,.81c-.54-.21-1.07-.42-1.61-.66s-1.07-.48-1.6-.75a18.58,18.58,0,0,0,13,.9,19.41,19.41,0,0,0,11.1-7.81Z"/><path class="cls-3" d="M349.48,95.36a5.83,5.83,0,0,1-1.75,4.26,6.58,6.58,0,0,1-4.26,1.95h-.91a31.53,31.53,0,0,1-12.22-2.8,32.52,32.52,0,0,1-9.95-7,33,33,0,0,1-6.72-10.12A31,31,0,0,1,311.2,69.3v-26A5.94,5.94,0,0,1,313,38.84a6.06,6.06,0,0,1,4.44-1.8,6.23,6.23,0,0,1,4.49,1.8,5.87,5.87,0,0,1,1.87,4.41l-.1,26.05a18.92,18.92,0,0,0,1.51,7.52A20.18,20.18,0,0,0,329.29,83a20.43,20.43,0,0,0,6,4.31,18,18,0,0,0,7.36,1.76h.51a6.33,6.33,0,0,1,6.31,6.31Z"/><path class="cls-3" d="M412.61,37.14a6.15,6.15,0,0,1,6.21,6.21v6.41a37.12,37.12,0,0,1-.7,6.22,27.66,27.66,0,0,1-1.9,5.91,34.13,34.13,0,0,1-6.82,10.22,40.42,40.42,0,0,1-4.81,4,28,28,0,0,1-5.41,3c-1.07.41-2.12.77-3.15,1.11a25.45,25.45,0,0,1-3.26.8V95.46a5.84,5.84,0,0,1-1.8,4.36,6.1,6.1,0,0,1-4.41,1.75,6,6,0,0,1-4.31-1.75,5.81,5.81,0,0,1-1.81-4.36V80.93a24.89,24.89,0,0,1-3.25-.8c-1-.34-2.09-.7-3.16-1.11a28,28,0,0,1-5.41-3,40.42,40.42,0,0,1-4.81-4,34.13,34.13,0,0,1-6.92-10.22,35.15,35.15,0,0,1-2.5-12.13V43.35a6.15,6.15,0,0,1,6.21-6.21,5.84,5.84,0,0,1,4.36,1.8,6.07,6.07,0,0,1,1.75,4.41v6a19.26,19.26,0,0,0,1.56,7.72,20,20,0,0,0,10.57,10.57,19.26,19.26,0,0,0,7.72,1.55,19.59,19.59,0,0,0,7.76-1.55,20,20,0,0,0,6.37-4.26A20.19,20.19,0,0,0,405,57.08a19.43,19.43,0,0,0,1.55-7.72v-6a6.07,6.07,0,0,1,1.75-4.41A5.84,5.84,0,0,1,412.61,37.14Z"/></svg>