<svg id="Layer_1" data-name="Layer 1" xmlns="http://www.w3.org/2000/svg" width="410" height="90" viewBox="0 0 410 90"><defs><style>.cls-1{fill:#a0c3bb;}.cls-2{fill:#ebc5d8;}</style></defs><path class="cls-1" d="M74,56a30.56,30.56,0,0,1-.85,8,34.86,34.86,0,0,1-2.76,7.47A32.56,32.56,0,0,1,66,78.1a30.78,30.78,0,0,1-6.07,5.36A32.51,32.51,0,0,1,28,86a33,33,0,0,1-6.87-4.46,32.08,32.08,0,0,1-5.52-6,34.55,34.55,0,0,1-3.92-7.17,28.27,28.27,0,0,1-2-8c-.07-.53-.12-1-.15-1.55s-.05-1-.05-1.55V14.92a6,6,0,0,1,1.81-4.41,6.09,6.09,0,0,1,4.45-1.8,6.06,6.06,0,0,1,4.44,1.8A6,6,0,0,1,22,14.92V31.35a34.81,34.81,0,0,1,11.27-5.56,31.4,31.4,0,0,1,12.58-.95,32.52,32.52,0,0,1,11.93,4,31,31,0,0,1,9.52,8.27,32.85,32.85,0,0,1,4.81,9A34.18,34.18,0,0,1,74,56ZM58,68.13A18.76,18.76,0,0,0,61.5,55.5a18.47,18.47,0,0,0-1.8-7.06,21.16,21.16,0,0,0-4.2-6,17.79,17.79,0,0,0-2.75-2.11c-1-.6-2-1.17-3-1.7A19.07,19.07,0,0,0,41.8,37a19.48,19.48,0,0,0-14.53,6.31,19.9,19.9,0,0,0-4.2,6.81,19.36,19.36,0,0,0-.76,10.42,20.35,20.35,0,0,0,4.56,9.42,17.31,17.31,0,0,0,6.42,4.82c.6.33,1.22.63,1.85.9l2,.8c-.53-.2-1.07-.42-1.6-.65s-1.07-.49-1.61-.75a18.58,18.58,0,0,0,13,.9A19.47,19.47,0,0,0,58,68.13Z"/><path class="cls-1" d="M141,24.44a5.93,5.93,0,0,1,4.41,1.85,6.19,6.19,0,0,1,1.8,4.46V56.81a30.88,30.88,0,0,1-2.55,12.47,32.64,32.64,0,0,1-17.14,17.14,32,32,0,0,1-25,0A32.64,32.64,0,0,1,85.3,69.28a30.88,30.88,0,0,1-2.55-12.47V30.75a6.32,6.32,0,0,1,6.31-6.31,5.93,5.93,0,0,1,4.41,1.85,6.15,6.15,0,0,1,1.8,4.45v26a18.84,18.84,0,0,0,1.56,7.66A20.6,20.6,0,0,0,101,70.65a19.51,19.51,0,0,0,14,5.8,19.11,19.11,0,0,0,7.61-1.55A20.09,20.09,0,0,0,133.2,64.4a18.84,18.84,0,0,0,1.56-7.66h-.1v-26a6,6,0,0,1,1.85-4.45A6.1,6.1,0,0,1,141,24.44Z"/><path class="cls-1" d="M220.64,56a30.56,30.56,0,0,1-.86,8A33.82,33.82,0,0,1,217,71.49a32.11,32.11,0,0,1-4.46,6.61,31.07,31.07,0,0,1-6.07,5.36A32.51,32.51,0,0,1,174.57,86a33.1,33.1,0,0,1-6.88-4.46,32.43,32.43,0,0,1-5.52-6,34.51,34.51,0,0,1-3.91-7.17,28.63,28.63,0,0,1-2-8c-.06-.53-.12-1-.15-1.55s-.05-1-.05-1.55V14.92a6,6,0,0,1,1.82-4.41,6.39,6.39,0,0,1,8.89,0,6,6,0,0,1,1.82,4.41V31.35a34.71,34.71,0,0,1,11.27-5.56,31.38,31.38,0,0,1,12.58-.95,32.41,32.41,0,0,1,11.92,4,30.85,30.85,0,0,1,9.52,8.27,32.58,32.58,0,0,1,4.81,9A34.19,34.19,0,0,1,220.64,56Zm-16,12.12a18.81,18.81,0,0,0,3.5-12.63,18.47,18.47,0,0,0-1.8-7.06,21.57,21.57,0,0,0-4.2-6,18.8,18.8,0,0,0-2.75-2.11c-1-.6-2-1.17-3.05-1.7A19.08,19.08,0,0,0,188.4,37a20,20,0,0,0-18.73,13.12,19.46,19.46,0,0,0-.75,10.42,20.26,20.26,0,0,0,4.56,9.42,17.28,17.28,0,0,0,6.41,4.82,19.94,19.94,0,0,0,1.86.9l1.95.8c-.53-.2-1.07-.42-1.61-.65l-1.6-.75a18.58,18.58,0,0,0,13,.9,19.56,19.56,0,0,0,11.11-7.82Z"/><path class="cls-1" d="M294.29,56a30.56,30.56,0,0,1-.85,8,34.86,34.86,0,0,1-2.76,7.47,32.56,32.56,0,0,1-4.47,6.61,30.78,30.78,0,0,1-6.07,5.36A32.51,32.51,0,0,1,248.22,86a32.77,32.77,0,0,1-6.87-4.46,32.08,32.08,0,0,1-5.52-6,34.55,34.55,0,0,1-3.92-7.17,28.27,28.27,0,0,1-1.95-8c-.07-.53-.12-1-.16-1.55s-.05-1-.05-1.55V14.92a6,6,0,0,1,1.82-4.41,6.39,6.39,0,0,1,8.89,0,6,6,0,0,1,1.82,4.41V31.35a34.76,34.76,0,0,1,11.28-5.56,31.33,31.33,0,0,1,12.57-.95,32.52,32.52,0,0,1,11.93,4,31,31,0,0,1,9.52,8.27,32.85,32.85,0,0,1,4.81,9A34.18,34.18,0,0,1,294.29,56Zm-16,12.12a18.76,18.76,0,0,0,3.5-12.63,18.47,18.47,0,0,0-1.8-7.06,21.16,21.16,0,0,0-4.2-6A17.79,17.79,0,0,0,273,40.37c-1-.6-2-1.17-3.05-1.7a19,19,0,0,0-7.9-1.7,19.48,19.48,0,0,0-14.53,6.31,19.9,19.9,0,0,0-4.2,6.81,19.36,19.36,0,0,0-.76,10.42,20.35,20.35,0,0,0,4.56,9.42,17.39,17.39,0,0,0,6.42,4.82c.6.33,1.22.63,1.85.9l2,.8c-.54-.2-1.08-.42-1.61-.65s-1.07-.49-1.61-.75a18.58,18.58,0,0,0,13,.9,19.47,19.47,0,0,0,11.11-7.82Z"/><path class="cls-1" d="M340,82.76A5.8,5.8,0,0,1,338.23,87,6.56,6.56,0,0,1,334,89h-.9a31.31,31.31,0,0,1-12.22-2.8,32.68,32.68,0,0,1-10-7,33,33,0,0,1-6.71-10.12,31,31,0,0,1-2.47-12.37V30.65a6,6,0,0,1,1.81-4.41,6.09,6.09,0,0,1,4.45-1.8,6.23,6.23,0,0,1,4.49,1.8,5.9,5.9,0,0,1,1.87,4.41l-.1,26.06a18.86,18.86,0,0,0,1.5,7.51,20.17,20.17,0,0,0,10.08,10.47,17.86,17.86,0,0,0,7.36,1.76h.5A6.33,6.33,0,0,1,340,82.76Z"/><path class="cls-1" d="M403.12,24.54a6.15,6.15,0,0,1,6.21,6.21v6.42a38.2,38.2,0,0,1-.7,6.21,28.24,28.24,0,0,1-1.9,5.91,34.31,34.31,0,0,1-6.82,10.22,41.23,41.23,0,0,1-4.81,4,28,28,0,0,1-5.41,3c-1.07.4-2.12.77-3.16,1.1a24.89,24.89,0,0,1-3.25.8V82.86a5.81,5.81,0,0,1-1.81,4.36A6.07,6.07,0,0,1,377.06,89a6,6,0,0,1-4.31-1.75,5.84,5.84,0,0,1-1.8-4.36V68.33a25,25,0,0,1-3.26-.8c-1-.33-2.08-.7-3.15-1.1a27.7,27.7,0,0,1-5.41-3,40.42,40.42,0,0,1-4.81-4,34,34,0,0,1-6.92-10.22,34.91,34.91,0,0,1-2.5-12.12V30.75a6.15,6.15,0,0,1,6.21-6.21,5.84,5.84,0,0,1,4.36,1.8,6.1,6.1,0,0,1,1.75,4.41v6a19.36,19.36,0,0,0,1.55,7.72,20,20,0,0,0,10.58,10.57,19.18,19.18,0,0,0,7.71,1.56,19.91,19.91,0,0,0,18.39-12.13A19.19,19.19,0,0,0,397,36.76v-6a6.1,6.1,0,0,1,1.75-4.41A5.84,5.84,0,0,1,403.12,24.54Z"/><path class="cls-2" d="M65.2,48.28a30.14,30.14,0,0,1-.85,8,34.33,34.33,0,0,1-2.76,7.47,32,32,0,0,1-4.47,6.61,30.5,30.5,0,0,1-6.07,5.36,32.49,32.49,0,0,1-31.91,2.51,33.1,33.1,0,0,1-6.88-4.46,32.08,32.08,0,0,1-5.52-6,35,35,0,0,1-3.92-7.17,29,29,0,0,1-1.95-8c-.07-.53-.12-1-.15-1.55s0-1,0-1.55V7.19A5.94,5.94,0,0,1,2.49,2.78,6.06,6.06,0,0,1,6.93,1a6.1,6.1,0,0,1,4.45,1.8A6,6,0,0,1,13.2,7.19V23.62a34.61,34.61,0,0,1,11.27-5.56,31.38,31.38,0,0,1,12.58-.95,32.47,32.47,0,0,1,11.92,4,31,31,0,0,1,9.52,8.27,32.85,32.85,0,0,1,4.81,9A33.85,33.85,0,0,1,65.2,48.28Zm-16,12.12a18.86,18.86,0,0,0,3.5-12.63,18.84,18.84,0,0,0-1.8-7.06,21.42,21.42,0,0,0-4.2-6,17.72,17.72,0,0,0-2.76-2.11c-1-.6-2-1.17-3.05-1.7a19,19,0,0,0-7.9-1.7,19.43,19.43,0,0,0-14.52,6.31,19.92,19.92,0,0,0-4.21,6.81,19.46,19.46,0,0,0-.75,10.42,20.26,20.26,0,0,0,4.56,9.42A17.15,17.15,0,0,0,24.46,67a18.64,18.64,0,0,0,1.85.91l2,.8c-.54-.2-1.07-.42-1.61-.65s-1.07-.49-1.6-.75a18.58,18.58,0,0,0,13,.9A19.56,19.56,0,0,0,49.18,60.4Z"/><path class="cls-2" d="M132.14,16.71a5.93,5.93,0,0,1,4.41,1.85A6.16,6.16,0,0,1,138.36,23V49.08a30.75,30.75,0,0,1-2.56,12.47,32.58,32.58,0,0,1-17.13,17.14,32.06,32.06,0,0,1-25.06,0A32.58,32.58,0,0,1,76.48,61.55a30.75,30.75,0,0,1-2.56-12.47V23a6.33,6.33,0,0,1,6.31-6.31,5.93,5.93,0,0,1,4.41,1.85A6.12,6.12,0,0,1,86.45,23V49A18.83,18.83,0,0,0,88,56.67a20.78,20.78,0,0,0,4.21,6.25,19.51,19.51,0,0,0,14,5.8,19.19,19.19,0,0,0,7.62-1.55,20.09,20.09,0,0,0,10.57-10.5A19,19,0,0,0,125.93,49h-.1V23a6.32,6.32,0,0,1,6.31-6.3Z"/><path class="cls-2" d="M211.81,48.28a30.56,30.56,0,0,1-.85,8,34.86,34.86,0,0,1-2.76,7.47,32.84,32.84,0,0,1-4.47,6.61,30.78,30.78,0,0,1-6.07,5.36,32.51,32.51,0,0,1-31.92,2.51,33,33,0,0,1-6.87-4.46,32.08,32.08,0,0,1-5.52-6,34.55,34.55,0,0,1-3.92-7.17,28.61,28.61,0,0,1-2-8c-.07-.53-.12-1-.15-1.55s-.05-1-.05-1.55V7.19a6,6,0,0,1,1.81-4.41,6.39,6.39,0,0,1,8.89,0,6,6,0,0,1,1.82,4.41V23.62a34.76,34.76,0,0,1,11.28-5.56,31.33,31.33,0,0,1,12.57-.95,32.46,32.46,0,0,1,11.93,4,31,31,0,0,1,9.52,8.27,32.85,32.85,0,0,1,4.81,9A34.18,34.18,0,0,1,211.81,48.28Zm-16,12.12a18.82,18.82,0,0,0,3.51-12.63,18.66,18.66,0,0,0-1.81-7.06,21,21,0,0,0-4.2-6,17.19,17.19,0,0,0-2.75-2.11c-1-.6-2-1.17-3.05-1.7a19,19,0,0,0-7.9-1.7,19.43,19.43,0,0,0-14.52,6.31,19.77,19.77,0,0,0-4.21,6.81,19.36,19.36,0,0,0-.76,10.42,20.45,20.45,0,0,0,4.56,9.42A17.26,17.26,0,0,0,171.07,67a18.64,18.64,0,0,0,1.85.91l2,.8c-.54-.2-1.07-.42-1.61-.65s-1.07-.49-1.61-.75a18.58,18.58,0,0,0,13,.9,19.47,19.47,0,0,0,11.11-7.82Z"/><path class="cls-2" d="M285.47,48.28a30.56,30.56,0,0,1-.86,8,33.82,33.82,0,0,1-2.76,7.47,32.38,32.38,0,0,1-4.46,6.61,30.84,30.84,0,0,1-6.08,5.36,32.48,32.48,0,0,1-31.91,2.51,33.1,33.1,0,0,1-6.88-4.46,32.08,32.08,0,0,1-5.52-6,34.51,34.51,0,0,1-3.91-7.17,28.63,28.63,0,0,1-2-8c-.07-.53-.12-1-.15-1.55s0-1,0-1.55V7.19a6,6,0,0,1,1.82-4.41,6.39,6.39,0,0,1,8.89,0,6,6,0,0,1,1.82,4.41V23.62a34.61,34.61,0,0,1,11.27-5.56,31.38,31.38,0,0,1,12.58-.95,32.47,32.47,0,0,1,11.92,4,30.85,30.85,0,0,1,9.52,8.27,32.85,32.85,0,0,1,4.81,9A34.19,34.19,0,0,1,285.47,48.28Zm-16,12.12a18.86,18.86,0,0,0,3.5-12.63,18.84,18.84,0,0,0-1.8-7.06,21.42,21.42,0,0,0-4.2-6,17.72,17.72,0,0,0-2.76-2.11c-1-.6-2-1.17-3.05-1.7a19,19,0,0,0-7.9-1.7,19.43,19.43,0,0,0-14.52,6.31,19.92,19.92,0,0,0-4.21,6.81,19.46,19.46,0,0,0-.75,10.42,20.26,20.26,0,0,0,4.56,9.42A17.15,17.15,0,0,0,244.72,67a17.78,17.78,0,0,0,1.86.91l1.95.8c-.54-.2-1.07-.42-1.61-.65s-1.07-.49-1.6-.75a18.58,18.58,0,0,0,13,.9,19.56,19.56,0,0,0,11.11-7.82Z"/><path class="cls-2" d="M331.16,75a5.83,5.83,0,0,1-1.75,4.26,6.56,6.56,0,0,1-4.26,1.95h-.9A31.36,31.36,0,0,1,312,78.44a32.52,32.52,0,0,1-9.95-7,32.89,32.89,0,0,1-6.72-10.12A31,31,0,0,1,292.88,49V22.92a6,6,0,0,1,1.82-4.41,6.06,6.06,0,0,1,4.44-1.8,6.27,6.27,0,0,1,4.5,1.8,5.94,5.94,0,0,1,1.87,4.41L305.41,49a18.9,18.9,0,0,0,1.5,7.51A20.2,20.2,0,0,0,317,67a17.86,17.86,0,0,0,7.36,1.76h.51A6.32,6.32,0,0,1,331.16,75Z"/><path class="cls-2" d="M394.29,16.81A6.16,6.16,0,0,1,400.51,23v6.42a38.19,38.19,0,0,1-.71,6.21,27.66,27.66,0,0,1-1.9,5.91,34.28,34.28,0,0,1-6.81,10.22,42.08,42.08,0,0,1-4.81,4,28.37,28.37,0,0,1-5.42,3c-1.07.4-2.12.77-3.15,1.1a25,25,0,0,1-3.26.8V75.13a5.84,5.84,0,0,1-1.8,4.36,6.1,6.1,0,0,1-4.41,1.75,6,6,0,0,1-4.31-1.75,5.85,5.85,0,0,1-1.81-4.36V60.6a24.89,24.89,0,0,1-3.25-.8c-1-.33-2.09-.7-3.16-1.1a28,28,0,0,1-5.41-3,41.23,41.23,0,0,1-4.81-4,33.79,33.79,0,0,1-6.91-10.22,34.92,34.92,0,0,1-2.51-12.12V23a6.15,6.15,0,0,1,6.21-6.21,5.84,5.84,0,0,1,4.36,1.8A6.11,6.11,0,0,1,348.4,23v6A19.22,19.22,0,0,0,350,36.75a20,20,0,0,0,10.57,10.57,19.26,19.26,0,0,0,7.72,1.56A19.56,19.56,0,0,0,376,47.32a19.79,19.79,0,0,0,6.37-4.26,20.07,20.07,0,0,0,4.26-6.31A19.39,19.39,0,0,0,388.18,29V23a6.1,6.1,0,0,1,1.75-4.41A5.84,5.84,0,0,1,394.29,16.81Z"/></svg>