<svg id="Layer_1" data-name="Layer 1" xmlns="http://www.w3.org/2000/svg" width="185" height="210" viewBox="0 0 185 210"><defs><style>.cls-1{fill:#f2f2f4;}.cls-2{fill:#a0c3bb;}.cls-3{fill:#ebc5d8;}</style></defs><circle class="cls-1" cx="86.91" cy="91.48" r="86.85"/><circle class="cls-1" cx="129.44" cy="149.87" r="55.51"/><circle class="cls-2" cx="86.91" cy="91.48" r="71.96"/><path class="cls-3" d="M165.05,136.64a35.51,35.51,0,0,1,2.78,9,40.11,40.11,0,0,1,.48,9.28,37.93,37.93,0,0,1-1.74,9.15,36.13,36.13,0,0,1-4,8.55A37.9,37.9,0,0,1,129.44,190a39.21,39.21,0,0,1-9.43-1.61,37.91,37.91,0,0,1-8.67-3.86,40.48,40.48,0,0,1-7.5-5.88A33.75,33.75,0,0,1,98.07,171c-.32-.54-.61-1.08-.88-1.6s-.52-1.07-.77-1.64l-.6-1.4L76.89,122.32a7,7,0,0,1-.09-5.57,7.44,7.44,0,0,1,9.54-4.1,7,7,0,0,1,4,3.89L98,134.28l0-.11A40.28,40.28,0,0,1,107.43,123a36.59,36.59,0,0,1,13-6.82,38.08,38.08,0,0,1,14.62-1.25,36.22,36.22,0,0,1,14,4.48,38.24,38.24,0,0,1,9.29,7.41A39.36,39.36,0,0,1,165.05,136.64ZM153.45,157a23.27,23.27,0,0,0-7.25-21.91,25.21,25.21,0,0,0-7.26-4.46,21.45,21.45,0,0,0-3.92-1c-1.32-.2-2.67-.34-4.06-.42a22.32,22.32,0,0,0-9.26,1.82,23.37,23.37,0,0,0-14,22.71,22.74,22.74,0,0,0,4,11.53,23.8,23.8,0,0,0,9.24,8,20.24,20.24,0,0,0,9.09,2.21,21.49,21.49,0,0,0,2.41.11l2.46,0c-.66,0-1.34,0-2,0s-1.37,0-2.07-.07a21.65,21.65,0,0,0,14.37-5,22.79,22.79,0,0,0,8.32-13.5Z"/><path class="cls-1" d="M96.73,48.34a6.78,6.78,0,0,1-1.23-9.23c2.42-3.45,6.45-3.9,10-1.41,2.88,2,4.06,5.27,2.79,8.33C106.4,50.59,100.41,51.61,96.73,48.34ZM136,79a181.74,181.74,0,0,0-14.92-17.21,4,4,0,0,1-.64-4.75l1.67-3a3.28,3.28,0,0,1,5.48-.39A155.43,155.43,0,0,1,140.5,73.43a3.67,3.67,0,0,1-.07,3.48l-1,1.82A2,2,0,0,1,136,79Z"/></svg>